<svg height="300" version="1.1" width="649.328" xmlns="http://www.w3.org/2000/svg" xmlns:xlink="http://www.w3.org/1999/xlink" style="overflow: hidden; position: relative;"><desc style="-webkit-tap-highlight-color: rgba(0, 0, 0, 0);">Created with Raphaël 2.1.2</desc><defs style="-webkit-tap-highlight-color: rgba(0, 0, 0, 0);"></defs><text x="32.859375" y="261" text-anchor="end" font-family="sans-serif" font-size="12px" stroke="none" fill="#888888" style="-webkit-tap-highlight-color: rgba(0, 0, 0, 0); text-anchor: end; font-family: sans-serif; font-size: 12px; font-weight: normal;" font-weight="normal"><tspan dy="4" style="-webkit-tap-highlight-color: rgba(0, 0, 0, 0);">0</tspan></text><path fill="none" stroke="#eeeeee" d="M45.359375,261H624.328" stroke-width="0.5" style="-webkit-tap-highlight-color: rgba(0, 0, 0, 0);"></path><text x="32.859375" y="202" text-anchor="end" font-family="sans-serif" font-size="12px" stroke="none" fill="#888888" style="-webkit-tap-highlight-color: rgba(0, 0, 0, 0); text-anchor: end; font-family: sans-serif; font-size: 12px; font-weight: normal;" font-weight="normal"><tspan dy="4" style="-webkit-tap-highlight-color: rgba(0, 0, 0, 0);">100</tspan></text><path fill="none" stroke="#eeeeee" d="M45.359375,202H624.328" stroke-width="0.5" style="-webkit-tap-highlight-color: rgba(0, 0, 0, 0);"></path><text x="32.859375" y="143" text-anchor="end" font-family="sans-serif" font-size="12px" stroke="none" fill="#888888" style="-webkit-tap-highlight-color: rgba(0, 0, 0, 0); text-anchor: end; font-family: sans-serif; font-size: 12px; font-weight: normal;" font-weight="normal"><tspan dy="4" style="-webkit-tap-highlight-color: rgba(0, 0, 0, 0);">200</tspan></text><path fill="none" stroke="#eeeeee" d="M45.359375,143H624.328" stroke-width="0.5" style="-webkit-tap-highlight-color: rgba(0, 0, 0, 0);"></path><text x="32.859375" y="84" text-anchor="end" font-family="sans-serif" font-size="12px" stroke="none" fill="#888888" style="-webkit-tap-highlight-color: rgba(0, 0, 0, 0); text-anchor: end; font-family: sans-serif; font-size: 12px; font-weight: normal;" font-weight="normal"><tspan dy="4" style="-webkit-tap-highlight-color: rgba(0, 0, 0, 0);">300</tspan></text><path fill="none" stroke="#eeeeee" d="M45.359375,84H624.328" stroke-width="0.5" style="-webkit-tap-highlight-color: rgba(0, 0, 0, 0);"></path><text x="32.859375" y="25" text-anchor="end" font-family="sans-serif" font-size="12px" stroke="none" fill="#888888" style="-webkit-tap-highlight-color: rgba(0, 0, 0, 0); text-anchor: end; font-family: sans-serif; font-size: 12px; font-weight: normal;" font-weight="normal"><tspan dy="4" style="-webkit-tap-highlight-color: rgba(0, 0, 0, 0);">400</tspan></text><path fill="none" stroke="#eeeeee" d="M45.359375,25H624.328" stroke-width="0.5" style="-webkit-tap-highlight-color: rgba(0, 0, 0, 0);"></path><text x="624.328" y="273.5" text-anchor="middle" font-family="sans-serif" font-size="12px" stroke="none" fill="#888888" style="-webkit-tap-highlight-color: rgba(0, 0, 0, 0); text-anchor: middle; font-family: sans-serif; font-size: 12px; font-weight: normal;" font-weight="normal" transform="matrix(1,0,0,1,0,7)"><tspan dy="4" style="-webkit-tap-highlight-color: rgba(0, 0, 0, 0);">2018</tspan></text><text x="527.9212718407846" y="273.5" text-anchor="middle" font-family="sans-serif" font-size="12px" stroke="none" fill="#888888" style="-webkit-tap-highlight-color: rgba(0, 0, 0, 0); text-anchor: middle; font-family: sans-serif; font-size: 12px; font-weight: normal;" font-weight="normal" transform="matrix(1,0,0,1,0,7)"><tspan dy="4" style="-webkit-tap-highlight-color: rgba(0, 0, 0, 0);">2017</tspan></text><text x="431.2504156592153" y="273.5" text-anchor="middle" font-family="sans-serif" font-size="12px" stroke="none" fill="#888888" style="-webkit-tap-highlight-color: rgba(0, 0, 0, 0); text-anchor: middle; font-family: sans-serif; font-size: 12px; font-weight: normal;" font-weight="normal" transform="matrix(1,0,0,1,0,7)"><tspan dy="4" style="-webkit-tap-highlight-color: rgba(0, 0, 0, 0);">2016</tspan></text><text x="334.8436875" y="273.5" text-anchor="middle" font-family="sans-serif" font-size="12px" stroke="none" fill="#888888" style="-webkit-tap-highlight-color: rgba(0, 0, 0, 0); text-anchor: middle; font-family: sans-serif; font-size: 12px; font-weight: normal;" font-weight="normal" transform="matrix(1,0,0,1,0,7)"><tspan dy="4" style="-webkit-tap-highlight-color: rgba(0, 0, 0, 0);">2015</tspan></text><text x="238.43695934078465" y="273.5" text-anchor="middle" font-family="sans-serif" font-size="12px" stroke="none" fill="#888888" style="-webkit-tap-highlight-color: rgba(0, 0, 0, 0); text-anchor: middle; font-family: sans-serif; font-size: 12px; font-weight: normal;" font-weight="normal" transform="matrix(1,0,0,1,0,7)"><tspan dy="4" style="-webkit-tap-highlight-color: rgba(0, 0, 0, 0);">2014</tspan></text><text x="142.03023118156932" y="273.5" text-anchor="middle" font-family="sans-serif" font-size="12px" stroke="none" fill="#888888" style="-webkit-tap-highlight-color: rgba(0, 0, 0, 0); text-anchor: middle; font-family: sans-serif; font-size: 12px; font-weight: normal;" font-weight="normal" transform="matrix(1,0,0,1,0,7)"><tspan dy="4" style="-webkit-tap-highlight-color: rgba(0, 0, 0, 0);">2013</tspan></text><text x="45.359375" y="273.5" text-anchor="middle" font-family="sans-serif" font-size="12px" stroke="none" fill="#888888" style="-webkit-tap-highlight-color: rgba(0, 0, 0, 0); text-anchor: middle; font-family: sans-serif; font-size: 12px; font-weight: normal;" font-weight="normal" transform="matrix(1,0,0,1,0,7)"><tspan dy="4" style="-webkit-tap-highlight-color: rgba(0, 0, 0, 0);">2012</tspan></text><path fill="#f99ea4" stroke="none" d="M45.359375,261C69.52708904539233,238.875,117.86251713617699,176.93105335157318,142.03023118156932,172.5C166.13191322137317,168.0810533515732,214.3352773009808,227.8125,238.43695934078465,225.6C262.5386413805885,223.3875,310.74200546019614,157.01250000000002,334.8436875,154.8C358.94536953980383,152.5875,407.1487336194115,200.16684336525307,431.2504156592153,207.9C455.4181297046076,215.65434336525308,503.7535577953923,212.31894664842682,527.9212718407846,216.75C552.0229538805884,221.1689466484268,600.2263179601962,236.66250000000002,624.328,243.3L624.328,261L45.359375,261Z" fill-opacity="0.7" style="-webkit-tap-highlight-color: rgba(0, 0, 0, 0); fill-opacity: 0.7;"></path><path fill="none" stroke="#ff5560" d="M45.359375,261C69.52708904539233,238.875,117.86251713617699,176.93105335157318,142.03023118156932,172.5C166.13191322137317,168.0810533515732,214.3352773009808,227.8125,238.43695934078465,225.6C262.5386413805885,223.3875,310.74200546019614,157.01250000000002,334.8436875,154.8C358.94536953980383,152.5875,407.1487336194115,200.16684336525307,431.2504156592153,207.9C455.4181297046076,215.65434336525308,503.7535577953923,212.31894664842682,527.9212718407846,216.75C552.0229538805884,221.1689466484268,600.2263179601962,236.66250000000002,624.328,243.3" stroke-width="0" style="-webkit-tap-highlight-color: rgba(0, 0, 0, 0);"></path><circle cx="45.359375" cy="261" r="3" fill="#ff5560" stroke="#ffffff" stroke-width="1" style="-webkit-tap-highlight-color: rgba(0, 0, 0, 0);"></circle><circle cx="142.03023118156932" cy="172.5" r="0" fill="#ff5560" stroke="#ffffff" stroke-width="1" style="-webkit-tap-highlight-color: rgba(0, 0, 0, 0);"></circle><circle cx="238.43695934078465" cy="225.6" r="0" fill="#ff5560" stroke="#ffffff" stroke-width="1" style="-webkit-tap-highlight-color: rgba(0, 0, 0, 0);"></circle><circle cx="334.8436875" cy="154.8" r="0" fill="#ff5560" stroke="#ffffff" stroke-width="1" style="-webkit-tap-highlight-color: rgba(0, 0, 0, 0);"></circle><circle cx="431.2504156592153" cy="207.9" r="0" fill="#ff5560" stroke="#ffffff" stroke-width="1" style="-webkit-tap-highlight-color: rgba(0, 0, 0, 0);"></circle><circle cx="527.9212718407846" cy="216.75" r="0" fill="#ff5560" stroke="#ffffff" stroke-width="1" style="-webkit-tap-highlight-color: rgba(0, 0, 0, 0);"></circle><circle cx="624.328" cy="243.3" r="0" fill="#ff5560" stroke="#ffffff" stroke-width="1" style="-webkit-tap-highlight-color: rgba(0, 0, 0, 0);"></circle><path fill="#f7d692" stroke="none" d="M45.359375,261C69.52708904539233,254.3625,117.86251713617699,245.52763337893296,142.03023118156932,234.45C166.13191322137317,223.40263337893296,214.3352773009808,171.83625,238.43695934078465,172.5C262.5386413805885,173.16375,310.74200546019614,233.1225,334.8436875,239.76C358.94536953980383,246.39749999999998,407.1487336194115,240.62441860465117,431.2504156592153,225.6C455.4181297046076,210.53441860465117,503.7535577953923,117.18447332421341,527.9212718407846,119.4C552.0229538805884,121.60947332421341,600.2263179601962,212.32500000000002,624.328,243.3L624.328,261L45.359375,261Z" fill-opacity="0.7" style="-webkit-tap-highlight-color: rgba(0, 0, 0, 0); fill-opacity: 0.7;"></path><path fill="none" stroke="#fcc24c" d="M45.359375,261C69.52708904539233,254.3625,117.86251713617699,245.52763337893296,142.03023118156932,234.45C166.13191322137317,223.40263337893296,214.3352773009808,171.83625,238.43695934078465,172.5C262.5386413805885,173.16375,310.74200546019614,233.1225,334.8436875,239.76C358.94536953980383,246.39749999999998,407.1487336194115,240.62441860465117,431.2504156592153,225.6C455.4181297046076,210.53441860465117,503.7535577953923,117.18447332421341,527.9212718407846,119.4C552.0229538805884,121.60947332421341,600.2263179601962,212.32500000000002,624.328,243.3" stroke-width="0" style="-webkit-tap-highlight-color: rgba(0, 0, 0, 0);"></path><circle cx="45.359375" cy="261" r="3" fill="#fcc24c" stroke="#ffffff" stroke-width="1" style="-webkit-tap-highlight-color: rgba(0, 0, 0, 0);"></circle><circle cx="142.03023118156932" cy="234.45" r="0" fill="#fcc24c" stroke="#ffffff" stroke-width="1" style="-webkit-tap-highlight-color: rgba(0, 0, 0, 0);"></circle><circle cx="238.43695934078465" cy="172.5" r="0" fill="#fcc24c" stroke="#ffffff" stroke-width="1" style="-webkit-tap-highlight-color: rgba(0, 0, 0, 0);"></circle><circle cx="334.8436875" cy="239.76" r="0" fill="#fcc24c" stroke="#ffffff" stroke-width="1" style="-webkit-tap-highlight-color: rgba(0, 0, 0, 0);"></circle><circle cx="431.2504156592153" cy="225.6" r="0" fill="#fcc24c" stroke="#ffffff" stroke-width="1" style="-webkit-tap-highlight-color: rgba(0, 0, 0, 0);"></circle><circle cx="527.9212718407846" cy="119.4" r="0" fill="#fcc24c" stroke="#ffffff" stroke-width="1" style="-webkit-tap-highlight-color: rgba(0, 0, 0, 0);"></circle><circle cx="624.328" cy="243.3" r="0" fill="#fcc24c" stroke="#ffffff" stroke-width="1" style="-webkit-tap-highlight-color: rgba(0, 0, 0, 0);"></circle><path fill="#8db1ec" stroke="none" d="M45.359375,261C69.52708904539233,258.7875,117.86251713617699,261,142.03023118156932,252.15C166.13191322137317,237.78842339261286,214.3352773009808,146.39249999999998,238.43695934078465,145.95C262.5386413805885,145.5075,310.74200546019614,260.77875,334.8436875,248.61C358.94536953980383,236.44125000000003,407.1487336194115,55.89126196990427,431.2504156592153,48.60000000000002C455.4181297046076,41.288761969904265,503.7535577953923,165.82920656634747,527.9212718407846,190.2C552.0229538805884,214.50420656634748,600.2263179601962,230.025,624.328,243.3L624.328,261L45.359375,261Z" fill-opacity="0.7" style="-webkit-tap-highlight-color: rgba(0, 0, 0, 0); fill-opacity: 0.7;"></path><path fill="none" stroke="#508aeb" d="M45.359375,261C69.52708904539233,258.7875,117.86251713617699,261,142.03023118156932,252.15C166.13191322137317,237.78842339261286,214.3352773009808,146.39249999999998,238.43695934078465,145.95C262.5386413805885,145.5075,310.74200546019614,260.77875,334.8436875,248.61C358.94536953980383,236.44125000000003,407.1487336194115,55.89126196990427,431.2504156592153,48.60000000000002C455.4181297046076,41.288761969904265,503.7535577953923,165.82920656634747,527.9212718407846,190.2C552.0229538805884,214.50420656634748,600.2263179601962,230.025,624.328,243.3" stroke-width="0" style="-webkit-tap-highlight-color: rgba(0, 0, 0, 0);"></path><circle cx="45.359375" cy="261" r="3" fill="#508aeb" stroke="#ffffff" stroke-width="1" style="-webkit-tap-highlight-color: rgba(0, 0, 0, 0);"></circle><circle cx="142.03023118156932" cy="252.15" r="0" fill="#508aeb" stroke="#ffffff" stroke-width="1" style="-webkit-tap-highlight-color: rgba(0, 0, 0, 0);"></circle><circle cx="238.43695934078465" cy="145.95" r="0" fill="#508aeb" stroke="#ffffff" stroke-width="1" style="-webkit-tap-highlight-color: rgba(0, 0, 0, 0);"></circle><circle cx="334.8436875" cy="248.61" r="0" fill="#508aeb" stroke="#ffffff" stroke-width="1" style="-webkit-tap-highlight-color: rgba(0, 0, 0, 0);"></circle><circle cx="431.2504156592153" cy="48.60000000000002" r="0" fill="#508aeb" stroke="#ffffff" stroke-width="1" style="-webkit-tap-highlight-color: rgba(0, 0, 0, 0);"></circle><circle cx="527.9212718407846" cy="190.2" r="0" fill="#508aeb" stroke="#ffffff" stroke-width="1" style="-webkit-tap-highlight-color: rgba(0, 0, 0, 0);"></circle><circle cx="624.328" cy="243.3" r="0" fill="#508aeb" stroke="#ffffff" stroke-width="1" style="-webkit-tap-highlight-color: rgba(0, 0, 0, 0);"></circle></svg>